<mxfile host="app.diagrams.net" modified="2023-05-10T16:33:19.977Z" agent="Mozilla/5.0 (Windows NT 10.0; Win64; x64) AppleWebKit/537.36 (KHTML, like Gecko) Chrome/113.0.0.0 Safari/537.36" etag="Do3AlB92KR7g4QLegu5R" version="21.2.9" type="github">
  <diagram name="PÃ¡gina-1" id="cuUyNeY7d9a3QJ-gikbQ">
    <mxGraphModel dx="1290" dy="665" grid="1" gridSize="10" guides="1" tooltips="1" connect="1" arrows="1" fold="1" page="1" pageScale="1" pageWidth="827" pageHeight="1169" math="0" shadow="0">
      <root>
        <mxCell id="0" />
        <mxCell id="1" parent="0" />
      </root>
    </mxGraphModel>
  </diagram>
</mxfile>
